<svg width="23" height="24" viewBox="0 0 23 24" fill="none" xmlns="http://www.w3.org/2000/svg">
<path opacity="0.987" fill-rule="evenodd" clip-rule="evenodd" d="M10.1436 0.103407C11.3777 -0.0344689 12.1079 -0.0344689 13.4339 0.103407C15.781 0.450811 17.9569 1.53576 19.6468 3.20135C18.5048 4.28076 17.3779 5.37592 16.2663 6.48654C14.1374 4.68224 11.7612 4.26577 9.1376 5.23714C7.21302 6.12227 5.87284 7.55663 5.11708 9.54022C3.88206 8.62076 2.66312 7.67989 1.46082 6.71803C1.37727 6.67405 1.28184 6.65795 1.18848 6.67207C3.09831 2.98972 6.08278 0.799593 10.1419 0.101704" fill="#F44336"/>
<path opacity="0.997" fill-rule="evenodd" clip-rule="evenodd" d="M1.18514 6.6734C1.28159 6.65864 1.37294 6.67396 1.45919 6.71935C2.66148 7.68122 3.88042 8.62209 5.11544 9.54155C4.9211 10.3144 4.79859 11.1036 4.74948 11.8991C4.79146 12.6684 4.91345 13.4236 5.11544 14.1646L1.27705 17.22C-0.394474 13.7272 -0.425113 10.2116 1.18514 6.6734Z" fill="#FFC107"/>
<path opacity="0.999" fill-rule="evenodd" clip-rule="evenodd" d="M19.4647 20.9175C18.2696 19.8635 17.0184 18.8748 15.7166 17.9557C17.0216 17.0343 17.8136 15.7701 18.0928 14.1633H11.6978V9.72232C15.3858 9.69168 19.0721 9.72289 22.7567 9.81594C23.4558 13.6118 22.6484 17.0343 20.3346 20.0834C20.0594 20.3759 19.768 20.6543 19.4647 20.9175Z" fill="#448AFF"/>
<path opacity="0.993" fill-rule="evenodd" clip-rule="evenodd" d="M5.11573 14.1641C6.51151 17.6331 9.07043 19.2524 12.7925 19.022C13.8374 18.9011 14.8391 18.5361 15.7168 17.9565C17.0196 18.8779 18.2689 19.8652 19.465 20.9183C17.5699 22.6212 15.1536 23.6316 12.6104 23.7847C12.0326 23.8309 11.452 23.8309 10.8742 23.7847C6.54158 23.2741 3.34264 21.0851 1.27734 17.2178L5.11573 14.1641Z" fill="#43A047"/>
</svg>
